<?xml version="1.0" encoding="UTF-8" standalone="no"?>
<!-- Created with Inkscape (http://www.inkscape.org/) -->

<svg
   xmlns:dc="http://purl.org/dc/elements/1.1/"
   xmlns:cc="http://creativecommons.org/ns#"
   xmlns:rdf="http://www.w3.org/1999/02/22-rdf-syntax-ns#"
   xmlns:svg="http://www.w3.org/2000/svg"
   xmlns="http://www.w3.org/2000/svg"
   xmlns:sodipodi="http://sodipodi.sourceforge.net/DTD/sodipodi-0.dtd"
   xmlns:inkscape="http://www.inkscape.org/namespaces/inkscape"
   width="744.09448819"
   height="1052.3622047"
   id="svg2"
   version="1.1"
   inkscape:version="0.48.0 r9654"
   sodipodi:docname="icon.svg"
   inkscape:export-filename="/home/alex/icon3.png"
   inkscape:export-xdpi="4.5500002"
   inkscape:export-ydpi="4.5500002">
  <defs
     id="defs4" />
  <sodipodi:namedview
     id="base"
     pagecolor="#ffffff"
     bordercolor="#666666"
     borderopacity="1.0"
     inkscape:pageopacity="0.0"
     inkscape:pageshadow="2"
     inkscape:zoom="0.98994948"
     inkscape:cx="457.38798"
     inkscape:cy="439.36173"
     inkscape:document-units="px"
     inkscape:current-layer="layer1"
     showgrid="false"
     inkscape:window-width="1920"
     inkscape:window-height="1003"
     inkscape:window-x="1052"
     inkscape:window-y="352"
     inkscape:window-maximized="1" />
  <metadata
     id="metadata7">
    <rdf:RDF>
      <cc:Work
         rdf:about="">
        <dc:format>image/svg+xml</dc:format>
        <dc:type
           rdf:resource="http://purl.org/dc/dcmitype/StillImage" />
        <dc:title></dc:title>
      </cc:Work>
    </rdf:RDF>
  </metadata>
  <g
     inkscape:label="Layer 1"
     inkscape:groupmode="layer"
     id="layer1">
    <rect
       style="fill:#ffffff;fill-opacity:1"
       id="rect3028"
       width="541.18927"
       height="481.90405"
       x="106.99927"
       y="260.7507" />
    <g
       id="g3004"
       transform="translate(21.213204,-17.172594)">
      <rect
         y="295.21933"
         x="114.28571"
         height="445.19437"
         width="17.142857"
         id="rect2987"
         style="fill:#909090;fill-opacity:1" />
      <rect
         transform="matrix(0,1,-1,0,0,0)"
         y="-610"
         x="709.50507"
         height="510.07181"
         width="17.142857"
         id="rect2987-2"
         style="fill:#909090;fill-opacity:1" />
      <rect
         transform="scale(-1,-1)"
         y="-740.4137"
         x="-177.73169"
         height="27.99967"
         width="17.142857"
         id="rect2987-2-1-2"
         style="fill:#909090;fill-opacity:1" />
      <rect
         transform="scale(-1,-1)"
         y="-740.4137"
         x="-224.03482"
         height="27.99967"
         width="17.142857"
         id="rect2987-2-1-8-3"
         style="fill:#909090;fill-opacity:1" />
      <rect
         transform="scale(-1,-1)"
         y="-740.4137"
         x="-270.33795"
         height="27.99967"
         width="17.142857"
         id="rect2987-2-1-0-5"
         style="fill:#909090;fill-opacity:1" />
      <rect
         transform="scale(-1,-1)"
         y="-740.4137"
         x="-316.64108"
         height="27.99967"
         width="17.142857"
         id="rect2987-2-1-81-7"
         style="fill:#909090;fill-opacity:1" />
      <rect
         transform="scale(-1,-1)"
         y="-740.4137"
         x="-362.94421"
         height="27.99967"
         width="17.142857"
         id="rect2987-2-1-5-0"
         style="fill:#909090;fill-opacity:1" />
      <rect
         transform="scale(-1,-1)"
         y="-740.4137"
         x="-409.24734"
         height="27.99967"
         width="17.142857"
         id="rect2987-2-1-3-2"
         style="fill:#909090;fill-opacity:1" />
      <rect
         transform="scale(-1,-1)"
         y="-740.4137"
         x="-455.55048"
         height="27.99967"
         width="17.142857"
         id="rect2987-2-1-51-6"
         style="fill:#909090;fill-opacity:1" />
      <rect
         transform="scale(-1,-1)"
         y="-740.4137"
         x="-501.85361"
         height="27.99967"
         width="17.142857"
         id="rect2987-2-1-1-0"
         style="fill:#909090;fill-opacity:1" />
      <path
         inkscape:connector-curvature="0"
         d="m 159.60992,695.41759 c 7.00217,2.4014 14.33831,3.46779 21.68327,4.10014 9.78617,0.60526 19.59781,0.55947 29.3983,0.62015 11.64497,0.0501 23.28979,-0.0314 34.9347,-0.0509 9.79165,-0.24004 19.62682,0.42072 29.38467,-0.50379 10.2666,-0.64597 20.3948,-2.16137 30.56746,-3.60661 8.91519,-0.53976 17.64459,-2.38161 26.47627,-3.59438 7.23448,-0.50075 14.21152,-2.57844 21.21968,-4.26548 7.00757,-1.57104 14.06142,-3.48081 20.52722,-6.65336 6.72558,-2.148 12.76342,-5.7192 18.97028,-8.96935 -61.77164,39.21048 -32.78419,18.43443 -19.19127,8.47916 5.31888,-3.615 10.63361,-7.21391 15.79382,-11.06228 5.21788,-4.34042 9.51484,-9.66938 14.09004,-14.66068 5.07407,-5.32439 9.66076,-11.09455 14.22337,-16.85704 3.64821,-4.96462 7.12774,-10.06249 10.4967,-15.22182 2.32657,-4.6088 5.01694,-9.0338 7.24553,-13.6909 2.60904,-5.12065 4.02661,-10.66426 5.70708,-16.12268 1.59493,-5.69185 2.4107,-11.52933 4.08327,-17.20484 2.11994,-5.38903 3.36495,-10.98239 4.02806,-16.71677 0.10094,-5.82125 1.18518,-11.51347 2.10032,-17.24079 0.58053,-5.77933 1.24365,-11.50073 2.32815,-17.20982 1.14473,-6.53028 2.57426,-13.01795 4.35062,-19.40584 2.0031,-6.35133 2.58658,-12.95768 2.98172,-19.56454 0.27593,-7.63431 0.28788,-15.27598 0.2785,-22.91445 -0.61924,-7.3619 -1.70087,-14.67278 -2.33922,-22.03649 -0.50021,-6.1811 -0.59988,-12.38338 -0.65451,-18.58127 -0.03,-5.72301 -0.015,-11.44613 -0.008,-17.16918 0.14498,-5.6926 -1.21286,-11.27344 -1.94044,-16.89371 -0.68402,-5.75674 -0.80758,-11.55713 -0.88986,-17.34731 -0.0527,-5.72214 -0.0359,-11.44463 -0.0294,-17.16692 0.007,-5.71371 0.0103,-11.42743 0.012,-17.14115 -0.43887,-5.35101 0.52969,-10.51823 1.52412,-15.73421 0.95286,-5.20144 1.1368,-10.49445 1.27208,-15.76736 0.0889,-4.73032 0.0821,-9.46173 0.0812,-14.19268 0,0 37.69216,-19.20808 37.69216,-19.20808 l 0,0 c 0.005,4.75535 0.016,9.51086 -0.0314,14.26605 -0.0805,5.4489 -0.17369,10.91525 -0.92414,16.3219 -0.81584,5.05224 -2.47502,9.92361 -1.91988,15.10946 -10e-4,5.71488 -0.003,11.42976 -0.0102,17.14464 -0.007,5.7064 -0.0229,11.41286 0.005,17.11922 0.0493,5.64949 0.10977,11.30865 0.67221,16.93542 0.66487,5.79646 2.11785,11.51889 2.18345,17.35245 -0.006,5.71596 -0.0189,11.43191 -0.0149,17.14787 0.018,6.12245 0.0456,12.24893 0.41505,18.36248 0.51892,7.49107 1.52109,14.91665 2.39916,22.37039 0.005,7.68631 0.0951,15.37453 -0.131,23.05884 -0.21665,6.85866 -0.58928,13.7772 -2.49698,20.40981 -1.80575,6.26039 -3.4606,12.57015 -4.44425,19.02084 -1.03961,5.6841 -2.18568,11.27497 -2.39008,17.0756 -0.80458,5.68849 -2.28034,11.26738 -2.19244,17.04666 -0.49828,5.99934 -1.37673,11.9684 -3.63594,17.59461 -2.1368,5.52818 -2.83758,11.32163 -4.13047,17.07417 -1.6431,5.55438 -2.91539,11.2654 -5.47091,16.49298 -1.8379,5.03666 -4.89734,9.37574 -7.02497,14.2636 -3.04634,5.50873 -7.00885,10.42896 -10.45401,15.67954 -4.302,6.03222 -9.21737,11.69276 -14.08563,17.26241 -4.66032,5.01298 -9.1449,10.17826 -13.72824,15.25967 -4.99577,4.057 -10.15803,7.98704 -15.82311,11.05276 -15.95086,13.40589 -35.65679,22.66469 -52.88094,33.65144 -6.19147,3.35989 -12.64914,6.1104 -19.20372,8.68592 -6.83135,2.49364 -13.78338,4.60038 -20.90647,6.10217 -7.0493,1.81869 -14.22169,3.11762 -21.46239,3.89921 -8.75659,1.27225 -17.49638,2.60857 -26.30703,3.46593 -10.21591,1.42738 -20.44388,2.64342 -30.73818,3.36973 -9.81592,0.46267 -19.64313,0.12145 -29.46705,0.20425 -11.62963,0.003 -23.25921,-0.0354 -34.88884,4e-5 -9.98118,0.0124 -19.98527,0.0788 -29.94034,-0.74152 -7.62379,-0.89125 -15.14685,-2.40277 -22.48749,-4.67559 0,0 35.11868,-23.82767 35.11868,-23.82767 z"
         id="path3011"
         style="fill:#6ebe44;fill-opacity:1" />
      <rect
         transform="matrix(0,1,-1,0,0,0)"
         y="-128.10898"
         x="659.33179"
         height="28.180788"
         width="17.142857"
         id="rect2987-2-1"
         style="fill:#909090;fill-opacity:1" />
      <rect
         transform="matrix(0,1,-1,0,0,0)"
         y="-128.10898"
         x="609.15845"
         height="28.180788"
         width="17.142857"
         id="rect2987-2-1-8"
         style="fill:#909090;fill-opacity:1" />
      <rect
         transform="matrix(0,1,-1,0,0,0)"
         y="-128.10898"
         x="558.98511"
         height="28.180788"
         width="17.142857"
         id="rect2987-2-1-0"
         style="fill:#909090;fill-opacity:1" />
      <rect
         transform="matrix(0,1,-1,0,0,0)"
         y="-128.10898"
         x="508.81177"
         height="28.180788"
         width="17.142857"
         id="rect2987-2-1-81"
         style="fill:#909090;fill-opacity:1" />
      <rect
         transform="matrix(0,1,-1,0,0,0)"
         y="-128.10898"
         x="458.63846"
         height="28.180788"
         width="17.142857"
         id="rect2987-2-1-5"
         style="fill:#909090;fill-opacity:1" />
      <rect
         transform="matrix(0,1,-1,0,0,0)"
         y="-128.10898"
         x="408.46518"
         height="28.180788"
         width="17.142857"
         id="rect2987-2-1-3"
         style="fill:#909090;fill-opacity:1" />
      <rect
         transform="matrix(0,1,-1,0,0,0)"
         y="-128.10898"
         x="358.29187"
         height="28.180788"
         width="17.142857"
         id="rect2987-2-1-51"
         style="fill:#909090;fill-opacity:1" />
      <rect
         transform="matrix(0,1,-1,0,0,0)"
         y="-128.10898"
         x="308.11853"
         height="28.180788"
         width="17.142857"
         id="rect2987-2-1-1"
         style="fill:#909090;fill-opacity:1" />
      <rect
         transform="scale(-1,-1)"
         y="-740.4137"
         x="-548.1568"
         height="27.99967"
         width="17.142857"
         id="rect2987-2-1-3-2-1"
         style="fill:#909090;fill-opacity:1" />
      <rect
         transform="scale(-1,-1)"
         y="-740.4137"
         x="-594.4599"
         height="27.99967"
         width="17.142857"
         id="rect2987-2-1-51-6-9"
         style="fill:#909090;fill-opacity:1" />
      <path
         inkscape:connector-curvature="0"
         d="m 150.23602,692.94603 c 17.34905,-3.54393 45.67072,-22.12279 -16.78315,13.34752 4.4217,-2.28308 8.01132,-5.67803 11.68198,-8.9547 3.11467,-2.74106 5.47544,-6.04531 7.76429,-9.47519 2.65645,-3.07216 4.9841,-6.33626 7.34396,-9.62848 2.26356,-3.53887 3.95796,-7.39337 6.002,-11.05204 1.95828,-3.78095 3.6567,-7.70119 5.707,-11.4329 2.0482,-3.97544 2.94395,-8.40558 4.31479,-12.64509 0.91655,-4.6076 2.29903,-9.08707 3.4505,-13.6366 0.65135,-5.03129 1.6863,-9.852 3.57813,-14.56581 1.5265,-4.704 3.38207,-9.30942 4.81587,-14.04329 0.91102,-4.66437 2.57995,-9.10485 3.49698,-13.76579 1.20143,-4.60744 2.3792,-9.19356 3.36103,-13.85822 1.60792,-4.55886 2.47334,-9.25337 2.93806,-14.04924 0.0726,-5.05126 1.51945,-9.90609 2.3265,-14.85844 0.38093,-4.88489 1.9533,-9.53412 2.81696,-14.33462 1.09562,-4.662 2.49962,-9.18859 3.17118,-13.94607 0.25724,-4.96272 1.74862,-9.71385 2.57471,-14.58823 0.49051,-5.12198 0.87159,-10.17775 1.98568,-15.20961 0.86959,-4.83931 1.49889,-9.66156 2.74004,-14.42606 0.87596,-4.57354 2.71615,-8.84184 3.70828,-13.38449 0.72105,-5.44811 1.02841,-10.8743 2.38998,-16.21938 1.29536,-4.76476 3.39267,-8.78998 6.54914,-12.53195 14.48018,-11.09788 29.88164,-23.82479 48.2257,-26.42268 5.51704,-0.17897 10.79278,-1.75365 16.24789,-2.51061 5.75443,-0.69241 11.55636,-0.77176 17.34451,-0.83282 5.72757,-0.0338 11.45529,-0.0141 17.18291,-0.005 8.54828,0.14122 17.09889,-0.16282 25.61865,0.59916 11.69941,0.86236 23.26774,2.80497 34.93134,4.01711 9.12273,0.78774 18.2242,0.75998 27.27053,2.20432 6.00024,1.32728 12.22665,0.93919 18.20413,2.22705 6.44908,0.96589 12.75777,2.47728 19.14575,3.7709 6.19679,1.19234 12.51279,1.35357 18.80086,1.50114 7.7456,-0.15668 15.56834,0.65691 23.25438,-0.44313 6.1267,-1.18657 12.31302,-1.88516 18.53895,-2.22787 5.70185,-0.24217 11.41038,-0.22927 17.11616,-0.23101 7.27029,-0.35425 14.50442,-1.56342 21.79205,-2.13125 6.99455,0.0702 13.7469,-1.09615 20.60115,-2.25756 5.81577,-0.94512 11.70937,-1.14835 17.58865,-1.27107 5.71417,-0.0789 11.42912,-0.0566 17.14365,-0.0482 5.82503,0.1592 10.44534,0.26134 16.10915,-1.15363 5.06132,-1.1905 10.26915,-1.41784 15.44445,-1.59386 5.66203,-0.13768 11.32638,-0.11772 16.98964,-0.1127 5.72004,0.009 11.44008,0.0148 17.16013,0.0182 2.8581,10e-4 5.71619,0.002 8.57429,0.002 0,0 -34.22566,24.86506 -34.22566,24.86506 l 0,0 c -2.85841,-9.6e-4 -5.71682,-0.002 -8.57523,-0.004 -5.71924,-0.005 -11.43849,-0.0147 -17.15774,-0.0138 -5.62942,0.0101 -11.26264,0.006 -16.88617,0.29761 -5.09249,0.33961 -10.14593,0.95695 -15.12406,2.11843 -5.47423,0.80701 -11.02021,0.32622 -16.53668,0.43987 -5.68863,-0.002 -11.37877,-0.0168 -17.06544,0.15547 -5.7652,0.23242 -11.52515,0.65284 -17.20844,1.70047 -6.85241,1.13013 -13.72831,1.49628 -20.65803,1.88086 -7.3934,0.69919 -14.74214,2.06794 -22.18674,1.98394 -5.65053,0.0266 -11.30672,0.0534 -16.94579,0.4556 -6.14391,0.5147 -12.2202,1.4998 -18.34232,2.20383 -7.84619,0.34601 -15.70594,0.1498 -23.55672,0.0482 -6.48725,-0.18174 -12.97228,-0.60526 -19.31589,-2.08154 -6.33293,-1.39862 -12.69181,-2.54944 -19.09615,-3.57497 -6.0306,-0.6692 -12.09109,-1.09644 -18.06018,-2.25501 -8.905,-1.26191 -17.92459,-1.19936 -26.85262,-2.29976 -11.61946,-1.378 -23.1901,-3.21414 -34.89007,-3.81578 -8.60591,-0.36111 -17.21657,-0.12441 -25.82835,-0.11311 -5.71177,-0.007 -11.42411,-0.027 -17.13531,0.0687 -5.68152,0.13789 -11.37812,0.3526 -16.99256,1.30675 -5.38776,0.96002 -10.76015,1.94417 -16.16543,2.7722 -1.44027,0.44589 -5.53407,2.3548 -4.23397,1.59131 61.2423,-35.96466 42.10931,-23.89931 29.03961,-16.92263 -3.87927,2.7193 -6.1585,6.09029 -7.48705,10.65535 -2.23468,4.95038 -2.17198,10.29936 -2.63671,15.62737 -0.69489,4.74154 -2.30324,9.071 -3.57323,13.61971 -1.12241,4.77647 -2.52283,9.37168 -2.80097,14.31865 -1.05902,4.98442 -2.22987,9.79865 -2.13499,14.95543 -0.60253,4.91672 -2.10071,9.60312 -2.63745,14.48532 -0.44912,4.8133 -1.14294,9.60498 -3.09179,14.07668 -0.62361,4.87301 -2.15264,9.47694 -2.84314,14.29114 -0.59376,4.94918 -2.08849,9.70075 -2.46383,14.63691 -0.30823,5.00181 -0.72871,10.05155 -2.50423,14.78574 -1.64522,4.32026 -1.40911,9.22796 -3.60792,13.4264 -0.65335,4.86916 -2.20605,9.38412 -3.32435,14.1087 -1.10245,5.02666 -3.36329,9.55747 -4.6051,14.53906 -1.81551,4.55891 -3.82922,8.88166 -3.84882,13.92 -0.88376,4.72677 -2.77773,9.09951 -3.30899,13.88962 -1.1827,4.52111 -2.80553,8.86286 -3.92548,13.4006 -1.91779,3.81957 -4.08276,7.4989 -5.70065,11.44592 -1.91976,3.82391 -4.07106,7.49239 -5.85134,11.36794 -2.07223,3.61698 -4.47608,6.90968 -7.14318,10.07157 -2.99364,2.96907 -4.23986,7.21896 -7.66995,9.77008 -3.17211,3.93909 -7.28847,7.25424 -11.42865,10.12114 -25.92144,14.81813 -33.18355,21.61882 -56.1448,27.87588 0,0 33.51373,-26.03668 33.51373,-26.03668 z"
         id="path3009"
         style="fill:#49266c;fill-opacity:1" />
    </g>
  </g>
</svg>
